G04 Layer_Color=8388736*
%FSAX24Y24*%
%MOIN*%
G70*
G01*
G75*
%ADD10R,0.0374X0.0532*%
%ADD11R,0.1055X0.1055*%
%ADD12O,0.0315X0.0079*%
%ADD13O,0.0079X0.0315*%
%ADD14R,0.0532X0.0374*%
%ADD15R,0.0433X0.1024*%
G04:AMPARAMS|DCode=16|XSize=23.6mil|YSize=39.4mil|CornerRadius=2mil|HoleSize=0mil|Usage=FLASHONLY|Rotation=0.000|XOffset=0mil|YOffset=0mil|HoleType=Round|Shape=RoundedRectangle|*
%AMROUNDEDRECTD16*
21,1,0.0236,0.0354,0,0,0.0*
21,1,0.0196,0.0394,0,0,0.0*
1,1,0.0040,0.0098,-0.0177*
1,1,0.0040,-0.0098,-0.0177*
1,1,0.0040,-0.0098,0.0177*
1,1,0.0040,0.0098,0.0177*
%
%ADD16ROUNDEDRECTD16*%
%ADD17R,0.0335X0.0512*%
%ADD18R,0.0630X0.0748*%
%ADD19R,0.0157X0.0532*%
%ADD27C,0.1500*%
%ADD28C,0.0700*%
D10*
X035885Y030200D02*
D03*
X036515D02*
D03*
D11*
X038300Y030700D02*
D03*
D12*
X039107Y031192D02*
D03*
Y030995D02*
D03*
Y030798D02*
D03*
Y030602D02*
D03*
Y030405D02*
D03*
Y030208D02*
D03*
X037493D02*
D03*
Y030405D02*
D03*
Y030602D02*
D03*
Y030798D02*
D03*
Y030995D02*
D03*
Y031192D02*
D03*
D13*
X038792Y029893D02*
D03*
X038595D02*
D03*
X038398D02*
D03*
X038202D02*
D03*
X038005D02*
D03*
X037808D02*
D03*
Y031507D02*
D03*
X038005D02*
D03*
X038202D02*
D03*
X038398D02*
D03*
X038595D02*
D03*
X038792D02*
D03*
D14*
X036000Y028085D02*
D03*
Y028715D02*
D03*
Y026965D02*
D03*
Y026335D02*
D03*
D15*
X036718Y026650D02*
D03*
X037782D02*
D03*
D16*
X037624Y027609D02*
D03*
X036876D02*
D03*
Y028691D02*
D03*
X037250D02*
D03*
X037624D02*
D03*
D17*
X035865Y031000D02*
D03*
X036535D02*
D03*
X035865Y029400D02*
D03*
X036535D02*
D03*
X038415Y026400D02*
D03*
X039085D02*
D03*
X039085Y027150D02*
D03*
X038415D02*
D03*
D18*
X036796Y033503D02*
D03*
X040104D02*
D03*
D19*
X037938Y032450D02*
D03*
X038194D02*
D03*
X038450D02*
D03*
X038706D02*
D03*
X038962D02*
D03*
D27*
X035500Y032650D02*
D03*
X039200Y028550D02*
D03*
D28*
X034925Y031200D02*
D03*
Y030420D02*
D03*
Y029630D02*
D03*
Y028850D02*
D03*
Y028050D02*
D03*
Y027270D02*
D03*
Y026490D02*
D03*
Y025700D02*
D03*
X035900Y025305D02*
D03*
X036680D02*
D03*
X037460D02*
D03*
X038260D02*
D03*
X039040D02*
D03*
X039840D02*
D03*
X040825Y025690D02*
D03*
Y026480D02*
D03*
Y027260D02*
D03*
Y028050D02*
D03*
Y028840D02*
D03*
Y029620D02*
D03*
Y030420D02*
D03*
Y031200D02*
D03*
M02*
