M48
;Layer_Color=9474304
;FILE_FORMAT=2:4
INCH
;TYPE=PLATED
T1F00S00C0.0130
T2F00S00C0.0250
T3F00S00C0.0550
T4F00S00C0.1500
%
T01
X036000Y025950
X038400Y027600
X036850Y029400
Y030200
X039650Y030250
X037900Y031850
X037450
X036550Y031500
T02
X037150Y026650
T03
X034925Y025700
Y026490
Y027270
Y028050
Y028850
Y029630
Y030420
Y031200
X040825
Y030420
Y029620
Y028840
Y028050
Y027260
Y026480
Y025690
X039840Y025305
X039040
X038260
X037460
X036680
X035900
T04
X039200Y028550
X035500Y032650
M30
