G04 Layer_Physical_Order=1*
G04 Layer_Color=6120410*
%FSAX24Y24*%
%MOIN*%
G70*
G01*
G75*
%ADD10R,0.0374X0.0532*%
%ADD11R,0.1055X0.1055*%
%ADD12O,0.0315X0.0079*%
%ADD13O,0.0079X0.0315*%
%ADD14R,0.0532X0.0374*%
%ADD15R,0.0433X0.1024*%
G04:AMPARAMS|DCode=16|XSize=23.6mil|YSize=39.4mil|CornerRadius=2mil|HoleSize=0mil|Usage=FLASHONLY|Rotation=0.000|XOffset=0mil|YOffset=0mil|HoleType=Round|Shape=RoundedRectangle|*
%AMROUNDEDRECTD16*
21,1,0.0236,0.0354,0,0,0.0*
21,1,0.0196,0.0394,0,0,0.0*
1,1,0.0040,0.0098,-0.0177*
1,1,0.0040,-0.0098,-0.0177*
1,1,0.0040,-0.0098,0.0177*
1,1,0.0040,0.0098,0.0177*
%
%ADD16ROUNDEDRECTD16*%
%ADD17R,0.0335X0.0512*%
%ADD18R,0.0630X0.0748*%
%ADD19R,0.0157X0.0532*%
%ADD20C,0.0200*%
%ADD21C,0.0080*%
%ADD22C,0.0150*%
%ADD23C,0.0060*%
%ADD24C,0.0250*%
%ADD25C,0.0250*%
%ADD26C,0.0400*%
%ADD27C,0.1500*%
%ADD28C,0.0700*%
G36*
X041051Y034084D02*
X041114Y034058D01*
X041171Y034020D01*
X041220Y033971D01*
X041258Y033914D01*
X041284Y033851D01*
X041297Y033784D01*
Y033750D01*
Y025200D01*
Y025166D01*
X041284Y025099D01*
X041258Y025036D01*
X041220Y024979D01*
X041171Y024930D01*
X041114Y024892D01*
X041051Y024866D01*
X040984Y024853D01*
X039930D01*
X039927Y024903D01*
X039947Y024906D01*
X040047Y024947D01*
X040132Y025013D01*
X040198Y025098D01*
X040239Y025198D01*
X040254Y025305D01*
X040239Y025412D01*
X040198Y025512D01*
X040132Y025597D01*
X040047Y025663D01*
X039947Y025704D01*
X039840Y025719D01*
X039733Y025704D01*
X039633Y025663D01*
X039548Y025597D01*
X039482Y025512D01*
X039467Y025476D01*
X039413D01*
X039398Y025512D01*
X039332Y025597D01*
X039247Y025663D01*
X039147Y025704D01*
X039040Y025719D01*
X038933Y025704D01*
X038833Y025663D01*
X038748Y025597D01*
X038682Y025512D01*
X038675Y025495D01*
X038625D01*
X038618Y025512D01*
X038552Y025597D01*
X038467Y025663D01*
X038367Y025704D01*
X038260Y025719D01*
X038153Y025704D01*
X038053Y025663D01*
X037968Y025597D01*
X037902Y025512D01*
X037887Y025476D01*
X037833D01*
X037818Y025512D01*
X037752Y025597D01*
X037667Y025663D01*
X037567Y025704D01*
X037460Y025719D01*
X037353Y025704D01*
X037253Y025663D01*
X037168Y025597D01*
X037102Y025512D01*
X037095Y025495D01*
X037045D01*
X037038Y025512D01*
X036972Y025597D01*
X036887Y025663D01*
X036787Y025704D01*
X036680Y025719D01*
X036573Y025704D01*
X036473Y025663D01*
X036388Y025597D01*
X036322Y025512D01*
X036315Y025495D01*
X036265D01*
X036258Y025512D01*
X036192Y025597D01*
X036107Y025663D01*
X036007Y025704D01*
X035900Y025719D01*
X035793Y025704D01*
X035693Y025663D01*
X035608Y025597D01*
X035542Y025512D01*
X035501Y025412D01*
X035486Y025305D01*
X035501Y025198D01*
X035542Y025098D01*
X035608Y025013D01*
X035693Y024947D01*
X035793Y024906D01*
X035813Y024903D01*
X035810Y024853D01*
X034766D01*
X034699Y024866D01*
X034636Y024892D01*
X034579Y024930D01*
X034530Y024979D01*
X034492Y025036D01*
X034466Y025099D01*
X034453Y025166D01*
Y025200D01*
Y033750D01*
Y033784D01*
X034466Y033851D01*
X034492Y033914D01*
X034530Y033971D01*
X034579Y034020D01*
X034636Y034058D01*
X034699Y034084D01*
X034766Y034097D01*
X040984D01*
X041051Y034084D01*
D02*
G37*
%LPC*%
G36*
X036326Y027212D02*
X036050D01*
Y027015D01*
X036326D01*
Y027212D01*
D02*
G37*
G36*
X041232Y028000D02*
X040418D01*
X040426Y027943D01*
X040467Y027843D01*
X040533Y027758D01*
X040618Y027692D01*
X040647Y027680D01*
Y027630D01*
X040618Y027618D01*
X040533Y027552D01*
X040467Y027467D01*
X040426Y027367D01*
X040422Y027339D01*
X039312D01*
Y027466D01*
X038857D01*
Y026834D01*
X039312D01*
Y026961D01*
X040541D01*
X040618Y026902D01*
X040635Y026895D01*
Y026845D01*
X040618Y026838D01*
X040533Y026772D01*
X040467Y026687D01*
X040426Y026589D01*
X039312D01*
Y026716D01*
X038857D01*
Y026084D01*
X039312D01*
Y026211D01*
X040514D01*
X040533Y026188D01*
X040618Y026122D01*
X040647Y026110D01*
Y026060D01*
X040618Y026048D01*
X040533Y025982D01*
X040467Y025897D01*
X040426Y025797D01*
X040418Y025740D01*
X041232D01*
X041224Y025797D01*
X041183Y025897D01*
X041117Y025982D01*
X041032Y026048D01*
X041003Y026060D01*
Y026110D01*
X041032Y026122D01*
X041117Y026188D01*
X041183Y026273D01*
X041224Y026373D01*
X041239Y026480D01*
X041224Y026587D01*
X041183Y026687D01*
X041117Y026772D01*
X041032Y026838D01*
X041015Y026845D01*
Y026895D01*
X041032Y026902D01*
X041117Y026968D01*
X041183Y027053D01*
X041224Y027153D01*
X041239Y027260D01*
X041224Y027367D01*
X041183Y027467D01*
X041117Y027552D01*
X041032Y027618D01*
X041003Y027630D01*
Y027680D01*
X041032Y027692D01*
X041117Y027758D01*
X041183Y027843D01*
X041224Y027943D01*
X041232Y028000D01*
D02*
G37*
G36*
X038400Y027789D02*
X038328Y027774D01*
X038267Y027733D01*
X038226Y027672D01*
X038211Y027600D01*
X038226Y027528D01*
X038234Y027516D01*
X038207Y027466D01*
X038188D01*
Y026834D01*
X038643D01*
Y027466D01*
X038593D01*
X038566Y027516D01*
X038574Y027528D01*
X038589Y027600D01*
X038574Y027672D01*
X038533Y027733D01*
X038472Y027774D01*
X038400Y027789D01*
D02*
G37*
G36*
X035950Y027212D02*
X035674D01*
Y027015D01*
X035950D01*
Y027212D01*
D02*
G37*
G36*
X036326Y028035D02*
X036050D01*
Y027838D01*
X036326D01*
Y028035D01*
D02*
G37*
G36*
X035950Y028332D02*
X035674D01*
Y028135D01*
X035950D01*
Y028332D01*
D02*
G37*
G36*
X039200Y029364D02*
X039041Y029348D01*
X038889Y029302D01*
X038748Y029227D01*
X038624Y029126D01*
X038523Y029002D01*
X038448Y028861D01*
X038402Y028709D01*
X038386Y028550D01*
X038402Y028391D01*
X038448Y028239D01*
X038523Y028098D01*
X038624Y027974D01*
X038748Y027873D01*
X038889Y027798D01*
X039041Y027752D01*
X039200Y027736D01*
X039359Y027752D01*
X039511Y027798D01*
X039652Y027873D01*
X039776Y027974D01*
X039877Y028098D01*
X039952Y028239D01*
X039998Y028391D01*
X040014Y028550D01*
X039998Y028709D01*
X039952Y028861D01*
X039877Y029002D01*
X039776Y029126D01*
X039652Y029227D01*
X039511Y029302D01*
X039359Y029348D01*
X039200Y029364D01*
D02*
G37*
G36*
X035950Y028035D02*
X035674D01*
Y027838D01*
X035950D01*
Y028035D01*
D02*
G37*
G36*
X036326Y026915D02*
X036050D01*
Y026718D01*
X036326D01*
Y026915D01*
D02*
G37*
G36*
X037722Y027867D02*
X037526D01*
X037495Y027861D01*
X037468Y027843D01*
X037451Y027817D01*
X037444Y027785D01*
Y027432D01*
X037451Y027401D01*
X037468Y027374D01*
X037495Y027356D01*
X037526Y027350D01*
X037618D01*
Y027222D01*
X037505D01*
Y026078D01*
X038058D01*
Y027222D01*
X037945D01*
Y027451D01*
X037932Y027514D01*
X037897Y027567D01*
X037804Y027660D01*
Y027785D01*
X037797Y027817D01*
X037780Y027843D01*
X037753Y027861D01*
X037722Y027867D01*
D02*
G37*
G36*
X038365Y026350D02*
X038188D01*
Y026084D01*
X038365D01*
Y026350D01*
D02*
G37*
G36*
X040775Y025640D02*
X040418D01*
X040426Y025583D01*
X040467Y025483D01*
X040533Y025398D01*
X040618Y025332D01*
X040718Y025291D01*
X040775Y025283D01*
Y025640D01*
D02*
G37*
G36*
X041232D02*
X040875D01*
Y025283D01*
X040932Y025291D01*
X041032Y025332D01*
X041117Y025398D01*
X041183Y025483D01*
X041224Y025583D01*
X041232Y025640D01*
D02*
G37*
G36*
X038643Y026716D02*
X038465D01*
Y026450D01*
X038643D01*
Y026716D01*
D02*
G37*
G36*
X035950Y026915D02*
X035674D01*
Y026718D01*
X035950D01*
Y026915D01*
D02*
G37*
G36*
X038643Y026350D02*
X038465D01*
Y026084D01*
X038643D01*
Y026350D01*
D02*
G37*
G36*
X038365Y026716D02*
X038188D01*
Y026450D01*
X038365D01*
Y026716D01*
D02*
G37*
G36*
X036326Y028332D02*
X036050D01*
Y028135D01*
X036326D01*
Y028332D01*
D02*
G37*
G36*
X037171Y033453D02*
X036846D01*
Y033069D01*
X037171D01*
Y033453D01*
D02*
G37*
G36*
X040054D02*
X039729D01*
Y033069D01*
X040054D01*
Y033453D01*
D02*
G37*
G36*
X039101Y032776D02*
X039012D01*
Y032500D01*
X039101D01*
Y032776D01*
D02*
G37*
G36*
X036746Y033453D02*
X036421D01*
Y033069D01*
X036746D01*
Y033453D01*
D02*
G37*
G36*
X040479D02*
X040154D01*
Y033069D01*
X040479D01*
Y033453D01*
D02*
G37*
G36*
X040054Y033937D02*
X039729D01*
Y033553D01*
X040054D01*
Y033937D01*
D02*
G37*
G36*
X040479D02*
X040154D01*
Y033553D01*
X040479D01*
Y033937D01*
D02*
G37*
G36*
X036746D02*
X036421D01*
Y033553D01*
X036746D01*
Y033937D01*
D02*
G37*
G36*
X037171D02*
X036846D01*
Y033553D01*
X037171D01*
Y033937D01*
D02*
G37*
G36*
X035835Y030526D02*
X035638D01*
Y030250D01*
X035835D01*
Y030526D01*
D02*
G37*
G36*
X036132D02*
X035935D01*
Y030250D01*
X036132D01*
Y030526D01*
D02*
G37*
G36*
X035835Y030150D02*
X035638D01*
Y029874D01*
X035835D01*
Y030150D01*
D02*
G37*
G36*
X036132D02*
X035935D01*
Y029874D01*
X036132D01*
Y030150D01*
D02*
G37*
G36*
X038912Y032776D02*
X037799D01*
Y032463D01*
X037450D01*
X037388Y032451D01*
X037335Y032415D01*
X037035Y032115D01*
X036999Y032062D01*
X036987Y032000D01*
Y030995D01*
Y030391D01*
X036937Y030364D01*
X036922Y030374D01*
X036850Y030389D01*
X036812Y030381D01*
X036762Y030419D01*
Y030526D01*
X036268D01*
Y029874D01*
X036762D01*
Y029981D01*
X036812Y030019D01*
X036850Y030011D01*
X036922Y030026D01*
X036937Y030036D01*
X036987Y030009D01*
Y029591D01*
X036937Y029564D01*
X036922Y029574D01*
X036850Y029589D01*
X036812Y029581D01*
X036762Y029619D01*
Y029716D01*
X036307D01*
Y029084D01*
X036724D01*
X036733Y029084D01*
X036748Y029060D01*
X036756Y029034D01*
X036725Y028988D01*
X036713Y028926D01*
Y028915D01*
X036703Y028899D01*
X036696Y028868D01*
Y028854D01*
X036326D01*
Y028962D01*
X035674D01*
Y028468D01*
X036326D01*
Y028528D01*
X036696D01*
Y028515D01*
X036703Y028483D01*
X036713Y028468D01*
Y028424D01*
X036725Y028362D01*
X036761Y028309D01*
X036985Y028085D01*
X037038Y028049D01*
X037100Y028037D01*
X037450D01*
X037512Y028049D01*
X037565Y028085D01*
X037739Y028259D01*
X037775Y028312D01*
X037787Y028374D01*
Y028468D01*
X037797Y028483D01*
X037804Y028515D01*
Y028868D01*
X037797Y028899D01*
X037780Y028926D01*
X037753Y028944D01*
X037722Y028950D01*
X037526D01*
X037495Y028944D01*
X037468Y028926D01*
X037466Y028922D01*
X037408D01*
X037406Y028926D01*
X037379Y028944D01*
X037348Y028950D01*
X037300D01*
Y028691D01*
X037200D01*
Y028953D01*
X037180Y029000D01*
X037265Y029085D01*
X037301Y029138D01*
X037313Y029200D01*
Y030074D01*
X037363Y030109D01*
X037375Y030107D01*
X037611D01*
X037650Y030114D01*
X037662Y030123D01*
X037712Y030112D01*
X037723Y030062D01*
X037714Y030050D01*
X037707Y030011D01*
Y029775D01*
X037714Y029736D01*
X037736Y029703D01*
X037769Y029681D01*
X037808Y029673D01*
X037847Y029681D01*
X037880Y029703D01*
X037933D01*
X037966Y029681D01*
X038005Y029673D01*
X038043Y029681D01*
X038076Y029703D01*
X038130D01*
X038163Y029681D01*
X038202Y029673D01*
X038240Y029681D01*
X038273Y029703D01*
X038327D01*
X038360Y029681D01*
X038398Y029673D01*
X038437Y029681D01*
X038470Y029703D01*
X038524D01*
X038556Y029681D01*
X038595Y029673D01*
X038634Y029681D01*
X038667Y029703D01*
X038720D01*
X038753Y029681D01*
X038792Y029673D01*
X038831Y029681D01*
X038864Y029703D01*
X038886Y029736D01*
X038893Y029775D01*
Y030011D01*
X038886Y030050D01*
X038877Y030062D01*
X038888Y030112D01*
X038938Y030123D01*
X038950Y030114D01*
X038989Y030107D01*
X039225D01*
X039264Y030114D01*
X039297Y030136D01*
X039319Y030169D01*
X039327Y030208D01*
X039326Y030209D01*
X039372Y030233D01*
X039428Y030178D01*
X039461Y030156D01*
X039495Y030149D01*
X039517Y030117D01*
X039578Y030076D01*
X039650Y030061D01*
X039722Y030076D01*
X039783Y030117D01*
X039824Y030178D01*
X039839Y030250D01*
X039824Y030322D01*
X039783Y030383D01*
X039722Y030424D01*
X039650Y030439D01*
X039578Y030424D01*
X039517Y030383D01*
X039511Y030383D01*
X039445Y030450D01*
X039465Y030500D01*
X040384D01*
X040417Y030462D01*
X040411Y030420D01*
X040426Y030313D01*
X040467Y030213D01*
X040533Y030128D01*
X040618Y030062D01*
X040654Y030047D01*
Y029993D01*
X040618Y029978D01*
X040533Y029912D01*
X040467Y029827D01*
X040426Y029727D01*
X040411Y029620D01*
X040426Y029513D01*
X040467Y029413D01*
X040533Y029328D01*
X040618Y029262D01*
X040635Y029255D01*
Y029205D01*
X040618Y029198D01*
X040533Y029132D01*
X040467Y029047D01*
X040426Y028947D01*
X040411Y028840D01*
X040426Y028733D01*
X040467Y028633D01*
X040533Y028548D01*
X040618Y028482D01*
X040647Y028470D01*
Y028420D01*
X040618Y028408D01*
X040533Y028342D01*
X040467Y028257D01*
X040426Y028157D01*
X040418Y028100D01*
X041232D01*
X041224Y028157D01*
X041183Y028257D01*
X041117Y028342D01*
X041032Y028408D01*
X041003Y028420D01*
Y028470D01*
X041032Y028482D01*
X041117Y028548D01*
X041183Y028633D01*
X041224Y028733D01*
X041239Y028840D01*
X041224Y028947D01*
X041183Y029047D01*
X041117Y029132D01*
X041032Y029198D01*
X041015Y029205D01*
Y029255D01*
X041032Y029262D01*
X041117Y029328D01*
X041183Y029413D01*
X041224Y029513D01*
X041239Y029620D01*
X041224Y029727D01*
X041183Y029827D01*
X041117Y029912D01*
X041032Y029978D01*
X040996Y029993D01*
Y030047D01*
X041032Y030062D01*
X041117Y030128D01*
X041183Y030213D01*
X041224Y030313D01*
X041239Y030420D01*
X041224Y030527D01*
X041183Y030627D01*
X041117Y030712D01*
X041032Y030778D01*
X041015Y030785D01*
Y030835D01*
X041032Y030842D01*
X041117Y030908D01*
X041183Y030993D01*
X041224Y031093D01*
X041239Y031200D01*
X041224Y031307D01*
X041183Y031407D01*
X041117Y031492D01*
X041032Y031558D01*
X040932Y031599D01*
X040825Y031614D01*
X040718Y031599D01*
X040618Y031558D01*
X040533Y031492D01*
X040467Y031407D01*
X040426Y031307D01*
X040411Y031200D01*
X040426Y031093D01*
X040467Y030993D01*
X040533Y030908D01*
X040618Y030842D01*
X040635Y030835D01*
Y030785D01*
X040618Y030778D01*
X040533Y030712D01*
X040526Y030704D01*
X039341D01*
X039315Y030754D01*
X039319Y030760D01*
X039327Y030798D01*
X039319Y030837D01*
X039297Y030870D01*
Y030924D01*
X039319Y030956D01*
X039327Y030995D01*
X039319Y031034D01*
X039297Y031067D01*
Y031120D01*
X039319Y031153D01*
X039327Y031192D01*
X039319Y031231D01*
X039297Y031264D01*
X039264Y031286D01*
X039225Y031293D01*
X038989D01*
X038950Y031286D01*
X038938Y031277D01*
X038888Y031288D01*
X038877Y031338D01*
X038886Y031350D01*
X038893Y031389D01*
Y031625D01*
X038886Y031664D01*
X038864Y031697D01*
X038831Y031719D01*
X038792Y031727D01*
X038753Y031719D01*
X038720Y031697D01*
X038667D01*
X038645Y031711D01*
Y031507D01*
X038545D01*
Y031711D01*
X038540Y031708D01*
X038490Y031730D01*
X038490Y031730D01*
Y032124D01*
X038912D01*
Y032450D01*
Y032776D01*
D02*
G37*
G36*
X035500Y033464D02*
X035341Y033448D01*
X035189Y033402D01*
X035048Y033327D01*
X034924Y033226D01*
X034823Y033102D01*
X034748Y032961D01*
X034702Y032809D01*
X034686Y032650D01*
X034702Y032491D01*
X034748Y032339D01*
X034823Y032198D01*
X034924Y032074D01*
X035048Y031973D01*
X035189Y031898D01*
X035341Y031852D01*
X035500Y031836D01*
X035659Y031852D01*
X035811Y031898D01*
X035952Y031973D01*
X036076Y032074D01*
X036177Y032198D01*
X036252Y032339D01*
X036298Y032491D01*
X036314Y032650D01*
X036298Y032809D01*
X036252Y032961D01*
X036177Y033102D01*
X036076Y033226D01*
X035952Y033327D01*
X035811Y033402D01*
X035659Y033448D01*
X035500Y033464D01*
D02*
G37*
G36*
X039101Y032400D02*
X039012D01*
Y032124D01*
X039101D01*
Y032400D01*
D02*
G37*
G36*
X034925Y031614D02*
X034818Y031599D01*
X034718Y031558D01*
X034633Y031492D01*
X034567Y031407D01*
X034526Y031307D01*
X034511Y031200D01*
X034526Y031093D01*
X034567Y030993D01*
X034633Y030908D01*
X034718Y030842D01*
X034735Y030835D01*
Y030785D01*
X034718Y030778D01*
X034633Y030712D01*
X034567Y030627D01*
X034526Y030527D01*
X034511Y030420D01*
X034526Y030313D01*
X034567Y030213D01*
X034633Y030128D01*
X034718Y030062D01*
X034747Y030050D01*
Y030000D01*
X034718Y029988D01*
X034633Y029922D01*
X034567Y029837D01*
X034526Y029737D01*
X034511Y029630D01*
X034526Y029523D01*
X034567Y029423D01*
X034633Y029338D01*
X034718Y029272D01*
X034735Y029265D01*
Y029215D01*
X034718Y029208D01*
X034633Y029142D01*
X034567Y029057D01*
X034526Y028957D01*
X034511Y028850D01*
X034526Y028743D01*
X034567Y028643D01*
X034633Y028558D01*
X034718Y028492D01*
X034754Y028477D01*
Y028423D01*
X034718Y028408D01*
X034633Y028342D01*
X034567Y028257D01*
X034526Y028157D01*
X034511Y028050D01*
X034526Y027943D01*
X034567Y027843D01*
X034633Y027758D01*
X034718Y027692D01*
X034735Y027685D01*
Y027635D01*
X034718Y027628D01*
X034633Y027562D01*
X034567Y027477D01*
X034526Y027377D01*
X034511Y027270D01*
X034526Y027163D01*
X034567Y027063D01*
X034633Y026978D01*
X034718Y026912D01*
X034735Y026905D01*
Y026855D01*
X034718Y026848D01*
X034633Y026782D01*
X034567Y026697D01*
X034526Y026597D01*
X034511Y026490D01*
X034526Y026383D01*
X034567Y026283D01*
X034633Y026198D01*
X034718Y026132D01*
X034747Y026120D01*
Y026070D01*
X034718Y026058D01*
X034633Y025992D01*
X034567Y025907D01*
X034526Y025807D01*
X034511Y025700D01*
X034526Y025593D01*
X034567Y025493D01*
X034633Y025408D01*
X034718Y025342D01*
X034818Y025301D01*
X034925Y025286D01*
X035032Y025301D01*
X035132Y025342D01*
X035217Y025408D01*
X035283Y025493D01*
X035324Y025593D01*
X035332Y025651D01*
X035769Y026088D01*
X035837D01*
Y026039D01*
X035826Y026022D01*
X035811Y025950D01*
X035826Y025878D01*
X035867Y025817D01*
X035928Y025776D01*
X036000Y025761D01*
X036072Y025776D01*
X036133Y025817D01*
X036174Y025878D01*
X036189Y025950D01*
X036174Y026022D01*
X036163Y026039D01*
Y026088D01*
X036326D01*
Y026172D01*
X036442D01*
Y026078D01*
X036995D01*
Y026381D01*
X037045Y026412D01*
X037082Y026397D01*
X037150Y026388D01*
X037218Y026397D01*
X037281Y026423D01*
X037335Y026465D01*
X037377Y026519D01*
X037403Y026582D01*
X037412Y026650D01*
X037403Y026718D01*
X037377Y026781D01*
X037335Y026835D01*
X037281Y026877D01*
X037218Y026903D01*
X037150Y026912D01*
X037082Y026903D01*
X037045Y026888D01*
X036995Y026919D01*
Y027222D01*
X036882D01*
Y027350D01*
X036974D01*
X037005Y027356D01*
X037032Y027374D01*
X037049Y027401D01*
X037056Y027432D01*
Y027785D01*
X037049Y027817D01*
X037032Y027843D01*
X037005Y027861D01*
X036974Y027867D01*
X036778D01*
X036747Y027861D01*
X036720Y027843D01*
X036703Y027817D01*
X036696Y027785D01*
Y027660D01*
X036603Y027567D01*
X036568Y027514D01*
X036555Y027451D01*
Y027222D01*
X036442D01*
Y026498D01*
X036326D01*
Y026582D01*
X035674D01*
Y026453D01*
X035670Y026450D01*
X035214Y025995D01*
X035132Y026058D01*
X035103Y026070D01*
Y026120D01*
X035132Y026132D01*
X035217Y026198D01*
X035283Y026283D01*
X035324Y026383D01*
X035339Y026490D01*
X035324Y026597D01*
X035283Y026697D01*
X035217Y026782D01*
X035132Y026848D01*
X035115Y026855D01*
Y026905D01*
X035132Y026912D01*
X035217Y026978D01*
X035283Y027063D01*
X035324Y027163D01*
X035339Y027270D01*
X035324Y027377D01*
X035283Y027477D01*
X035217Y027562D01*
X035132Y027628D01*
X035115Y027635D01*
Y027685D01*
X035132Y027692D01*
X035217Y027758D01*
X035283Y027843D01*
X035324Y027943D01*
X035339Y028050D01*
X035324Y028157D01*
X035283Y028257D01*
X035217Y028342D01*
X035132Y028408D01*
X035096Y028423D01*
Y028477D01*
X035132Y028492D01*
X035217Y028558D01*
X035283Y028643D01*
X035324Y028743D01*
X035339Y028850D01*
X035324Y028957D01*
X035283Y029057D01*
X035217Y029142D01*
X035132Y029208D01*
X035115Y029215D01*
Y029265D01*
X035132Y029272D01*
X035217Y029338D01*
X035283Y029423D01*
X035291Y029441D01*
X035557D01*
X035638Y029361D01*
Y029084D01*
X036093D01*
Y029716D01*
X035816D01*
X035769Y029763D01*
X035708Y029804D01*
X035635Y029819D01*
X035291D01*
X035283Y029837D01*
X035217Y029922D01*
X035132Y029988D01*
X035103Y030000D01*
Y030050D01*
X035132Y030062D01*
X035217Y030128D01*
X035283Y030213D01*
X035324Y030313D01*
X035339Y030420D01*
X035324Y030527D01*
X035283Y030627D01*
X035217Y030712D01*
X035132Y030778D01*
X035115Y030785D01*
Y030835D01*
X035132Y030842D01*
X035217Y030908D01*
X035283Y030993D01*
X035291Y031011D01*
X035587D01*
X035638Y030961D01*
Y030684D01*
X036093D01*
Y031316D01*
X035816D01*
X035799Y031333D01*
X035738Y031374D01*
X035665Y031389D01*
X035291D01*
X035283Y031407D01*
X035217Y031492D01*
X035132Y031558D01*
X035032Y031599D01*
X034925Y031614D01*
D02*
G37*
G36*
X036550Y031689D02*
X036478Y031674D01*
X036417Y031633D01*
X036376Y031572D01*
X036361Y031500D01*
X036376Y031428D01*
X036397Y031396D01*
Y031316D01*
X036307D01*
Y030684D01*
X036762D01*
Y031316D01*
X036691D01*
X036682Y031366D01*
X036683Y031367D01*
X036724Y031428D01*
X036739Y031500D01*
X036724Y031572D01*
X036683Y031633D01*
X036622Y031674D01*
X036550Y031689D01*
D02*
G37*
%LPD*%
D10*
X035885Y030200D02*
D03*
X036515D02*
D03*
D11*
X038300Y030700D02*
D03*
D12*
X039107Y031192D02*
D03*
Y030995D02*
D03*
Y030798D02*
D03*
Y030602D02*
D03*
Y030405D02*
D03*
Y030208D02*
D03*
X037493D02*
D03*
Y030405D02*
D03*
Y030602D02*
D03*
Y030798D02*
D03*
Y030995D02*
D03*
Y031192D02*
D03*
D13*
X038792Y029893D02*
D03*
X038595D02*
D03*
X038398D02*
D03*
X038202D02*
D03*
X038005D02*
D03*
X037808D02*
D03*
Y031507D02*
D03*
X038005D02*
D03*
X038202D02*
D03*
X038398D02*
D03*
X038595D02*
D03*
X038792D02*
D03*
D14*
X036000Y028085D02*
D03*
Y028715D02*
D03*
Y026965D02*
D03*
Y026335D02*
D03*
D15*
X036718Y026650D02*
D03*
X037782D02*
D03*
D16*
X037624Y027609D02*
D03*
X036876D02*
D03*
Y028691D02*
D03*
X037250D02*
D03*
X037624D02*
D03*
D17*
X035865Y031000D02*
D03*
X036535D02*
D03*
X035865Y029400D02*
D03*
X036535D02*
D03*
X038415Y026400D02*
D03*
X039085D02*
D03*
X039085Y027150D02*
D03*
X038415D02*
D03*
D18*
X036796Y033503D02*
D03*
X040104D02*
D03*
D19*
X037938Y032450D02*
D03*
X038194D02*
D03*
X038450D02*
D03*
X038706D02*
D03*
X038962D02*
D03*
D20*
X037150Y032000D02*
X037450Y032300D01*
X037150Y030995D02*
Y032000D01*
Y029200D02*
Y030995D01*
X037450Y032300D02*
X037900D01*
X036876Y028926D02*
X037150Y029200D01*
X036876Y028691D02*
Y028926D01*
X036718Y027451D02*
X036876Y027609D01*
X036718Y026650D02*
Y027451D01*
X035785Y026335D02*
X036000D01*
X035150Y025700D02*
X035785Y026335D01*
X034925Y025700D02*
X035150D01*
X036000Y026335D02*
X036718D01*
X036000Y025950D02*
Y026335D01*
X036718D02*
Y026650D01*
X036719Y026650D01*
X037624Y028374D02*
Y028691D01*
X037450Y028200D02*
X037624Y028374D01*
X037100Y028200D02*
X037450D01*
X036876Y028424D02*
X037100Y028200D01*
X036876Y028424D02*
Y028691D01*
X036000Y028715D02*
X036024Y028691D01*
X036876D01*
X037624Y027609D02*
X037782Y027451D01*
Y026650D02*
Y027451D01*
D21*
X039500Y030250D02*
X039650D01*
X039345Y030405D02*
X039500Y030250D01*
X039107Y030405D02*
X039345D01*
X039107Y030602D02*
X040643D01*
X040825Y030420D01*
X038300Y030700D02*
X038595Y030995D01*
Y031507D01*
X038005D02*
Y031745D01*
X037900Y031850D02*
X038005Y031745D01*
X037808Y031758D02*
X037900Y031850D01*
X037808Y031507D02*
Y031758D01*
X037450Y031235D02*
Y031850D01*
D22*
X036535Y029400D02*
X036850D01*
X036515Y030200D02*
X036850D01*
X036535Y031485D02*
X036550Y031500D01*
X036535Y031000D02*
Y031485D01*
X038400Y027165D02*
X038415Y027150D01*
X038400Y027165D02*
Y027600D01*
D23*
X037150Y030995D02*
X037493D01*
X038398Y032198D02*
X038450Y032250D01*
X038398Y031507D02*
Y032198D01*
X038450Y032250D02*
Y032450D01*
X038194D02*
X038202Y032443D01*
Y031507D02*
Y032443D01*
D24*
X036719Y026650D02*
X037150D01*
X034925Y031200D02*
X035665D01*
X035865Y031000D01*
X034925Y029630D02*
X035635D01*
X035865Y029400D01*
X040715Y027150D02*
X040825Y027260D01*
X039085Y027150D02*
X040715D01*
X040745Y026400D02*
X040825Y026480D01*
X039085Y026400D02*
X040745D01*
D25*
X039650Y030250D02*
D03*
X037900Y031850D02*
D03*
X037450D02*
D03*
X036550Y031500D02*
D03*
X036850Y030200D02*
D03*
Y029400D02*
D03*
X036000Y025950D02*
D03*
X038400Y027600D02*
D03*
D26*
X037150Y026650D02*
D03*
D27*
X035500Y032650D02*
D03*
X039200Y028550D02*
D03*
D28*
X034925Y031200D02*
D03*
Y030420D02*
D03*
Y029630D02*
D03*
Y028850D02*
D03*
Y028050D02*
D03*
Y027270D02*
D03*
Y026490D02*
D03*
Y025700D02*
D03*
X035900Y025305D02*
D03*
X036680D02*
D03*
X037460D02*
D03*
X038260D02*
D03*
X039040D02*
D03*
X039840D02*
D03*
X040825Y025690D02*
D03*
Y026480D02*
D03*
Y027260D02*
D03*
Y028050D02*
D03*
Y028840D02*
D03*
Y029620D02*
D03*
Y030420D02*
D03*
Y031200D02*
D03*
M02*
