G04 Layer_Color=16777215*
%FSAX24Y24*%
%MOIN*%
G70*
G01*
G75*
%ADD32C,0.0020*%
%ADD33C,0.0027*%
D32*
X039570Y030170D02*
Y030330D01*
X039730D01*
Y030170D01*
X039570D01*
X037820Y031770D02*
Y031930D01*
X037980D01*
Y031770D01*
X037820D01*
X037370D02*
Y031930D01*
X037530D01*
Y031770D01*
X037370D01*
X036470Y031420D02*
Y031580D01*
X036630D01*
Y031420D01*
X036470D01*
X036770Y030120D02*
Y030280D01*
X036930D01*
Y030120D01*
X036770D01*
Y029320D02*
Y029480D01*
X036930D01*
Y029320D01*
X036770D01*
X035920Y025870D02*
Y026030D01*
X036080D01*
Y025870D01*
X035920D01*
X038320Y027520D02*
Y027680D01*
X038480D01*
Y027520D01*
X038320D01*
X035500Y032570D02*
X035420Y032730D01*
X035580D01*
X035500Y032570D01*
X039200Y028470D02*
X039120Y028630D01*
X039280D01*
X039200Y028470D01*
X034925Y031120D02*
X034965Y031160D01*
X035005D01*
X034965Y031200D01*
X035005Y031240D01*
X034965D01*
X034925Y031280D01*
X034885Y031240D01*
X034845D01*
X034885Y031200D01*
X034845Y031160D01*
X034885D01*
X034925Y031120D01*
Y030340D02*
X034965Y030380D01*
X035005D01*
X034965Y030420D01*
X035005Y030460D01*
X034965D01*
X034925Y030500D01*
X034885Y030460D01*
X034845D01*
X034885Y030420D01*
X034845Y030380D01*
X034885D01*
X034925Y030340D01*
Y029550D02*
X034965Y029590D01*
X035005D01*
X034965Y029630D01*
X035005Y029670D01*
X034965D01*
X034925Y029710D01*
X034885Y029670D01*
X034845D01*
X034885Y029630D01*
X034845Y029590D01*
X034885D01*
X034925Y029550D01*
Y028770D02*
X034965Y028810D01*
X035005D01*
X034965Y028850D01*
X035005Y028890D01*
X034965D01*
X034925Y028930D01*
X034885Y028890D01*
X034845D01*
X034885Y028850D01*
X034845Y028810D01*
X034885D01*
X034925Y028770D01*
Y027970D02*
X034965Y028010D01*
X035005D01*
X034965Y028050D01*
X035005Y028090D01*
X034965D01*
X034925Y028130D01*
X034885Y028090D01*
X034845D01*
X034885Y028050D01*
X034845Y028010D01*
X034885D01*
X034925Y027970D01*
Y027190D02*
X034965Y027230D01*
X035005D01*
X034965Y027270D01*
X035005Y027310D01*
X034965D01*
X034925Y027350D01*
X034885Y027310D01*
X034845D01*
X034885Y027270D01*
X034845Y027230D01*
X034885D01*
X034925Y027190D01*
Y026410D02*
X034965Y026450D01*
X035005D01*
X034965Y026490D01*
X035005Y026530D01*
X034965D01*
X034925Y026570D01*
X034885Y026530D01*
X034845D01*
X034885Y026490D01*
X034845Y026450D01*
X034885D01*
X034925Y026410D01*
Y025620D02*
X034965Y025660D01*
X035005D01*
X034965Y025700D01*
X035005Y025740D01*
X034965D01*
X034925Y025780D01*
X034885Y025740D01*
X034845D01*
X034885Y025700D01*
X034845Y025660D01*
X034885D01*
X034925Y025620D01*
X035900Y025225D02*
X035940Y025265D01*
X035980D01*
X035940Y025305D01*
X035980Y025345D01*
X035940D01*
X035900Y025385D01*
X035860Y025345D01*
X035820D01*
X035860Y025305D01*
X035820Y025265D01*
X035860D01*
X035900Y025225D01*
X036680D02*
X036720Y025265D01*
X036760D01*
X036720Y025305D01*
X036760Y025345D01*
X036720D01*
X036680Y025385D01*
X036640Y025345D01*
X036600D01*
X036640Y025305D01*
X036600Y025265D01*
X036640D01*
X036680Y025225D01*
X037460D02*
X037500Y025265D01*
X037540D01*
X037500Y025305D01*
X037540Y025345D01*
X037500D01*
X037460Y025385D01*
X037420Y025345D01*
X037380D01*
X037420Y025305D01*
X037380Y025265D01*
X037420D01*
X037460Y025225D01*
X038260D02*
X038300Y025265D01*
X038340D01*
X038300Y025305D01*
X038340Y025345D01*
X038300D01*
X038260Y025385D01*
X038220Y025345D01*
X038180D01*
X038220Y025305D01*
X038180Y025265D01*
X038220D01*
X038260Y025225D01*
X039040D02*
X039080Y025265D01*
X039120D01*
X039080Y025305D01*
X039120Y025345D01*
X039080D01*
X039040Y025385D01*
X039000Y025345D01*
X038960D01*
X039000Y025305D01*
X038960Y025265D01*
X039000D01*
X039040Y025225D01*
X039840D02*
X039880Y025265D01*
X039920D01*
X039880Y025305D01*
X039920Y025345D01*
X039880D01*
X039840Y025385D01*
X039800Y025345D01*
X039760D01*
X039800Y025305D01*
X039760Y025265D01*
X039800D01*
X039840Y025225D01*
X040825Y025610D02*
X040865Y025650D01*
X040905D01*
X040865Y025690D01*
X040905Y025730D01*
X040865D01*
X040825Y025770D01*
X040785Y025730D01*
X040745D01*
X040785Y025690D01*
X040745Y025650D01*
X040785D01*
X040825Y025610D01*
Y026400D02*
X040865Y026440D01*
X040905D01*
X040865Y026480D01*
X040905Y026520D01*
X040865D01*
X040825Y026560D01*
X040785Y026520D01*
X040745D01*
X040785Y026480D01*
X040745Y026440D01*
X040785D01*
X040825Y026400D01*
Y027180D02*
X040865Y027220D01*
X040905D01*
X040865Y027260D01*
X040905Y027300D01*
X040865D01*
X040825Y027340D01*
X040785Y027300D01*
X040745D01*
X040785Y027260D01*
X040745Y027220D01*
X040785D01*
X040825Y027180D01*
Y027970D02*
X040865Y028010D01*
X040905D01*
X040865Y028050D01*
X040905Y028090D01*
X040865D01*
X040825Y028130D01*
X040785Y028090D01*
X040745D01*
X040785Y028050D01*
X040745Y028010D01*
X040785D01*
X040825Y027970D01*
Y028760D02*
X040865Y028800D01*
X040905D01*
X040865Y028840D01*
X040905Y028880D01*
X040865D01*
X040825Y028920D01*
X040785Y028880D01*
X040745D01*
X040785Y028840D01*
X040745Y028800D01*
X040785D01*
X040825Y028760D01*
Y029540D02*
X040865Y029580D01*
X040905D01*
X040865Y029620D01*
X040905Y029660D01*
X040865D01*
X040825Y029700D01*
X040785Y029660D01*
X040745D01*
X040785Y029620D01*
X040745Y029580D01*
X040785D01*
X040825Y029540D01*
Y030340D02*
X040865Y030380D01*
X040905D01*
X040865Y030420D01*
X040905Y030460D01*
X040865D01*
X040825Y030500D01*
X040785Y030460D01*
X040745D01*
X040785Y030420D01*
X040745Y030380D01*
X040785D01*
X040825Y030340D01*
Y031120D02*
X040865Y031160D01*
X040905D01*
X040865Y031200D01*
X040905Y031240D01*
X040865D01*
X040825Y031280D01*
X040785Y031240D01*
X040745D01*
X040785Y031200D01*
X040745Y031160D01*
X040785D01*
X040825Y031120D01*
D33*
X037230Y026650D02*
G03*
X037230Y026650I-000080J000000D01*
G01*
M02*
