G04 Layer_Color=128*
%FSAX24Y24*%
%MOIN*%
G70*
G01*
G75*
%ADD32C,0.0020*%
D32*
X039585Y030250D02*
X039715D01*
X039650Y030185D02*
Y030315D01*
X037835Y031850D02*
X037965D01*
X037900Y031785D02*
Y031915D01*
X037385Y031850D02*
X037515D01*
X037450Y031785D02*
Y031915D01*
X036485Y031500D02*
X036615D01*
X036550Y031435D02*
Y031565D01*
X036785Y030200D02*
X036915D01*
X036850Y030135D02*
Y030265D01*
X036785Y029400D02*
X036915D01*
X036850Y029335D02*
Y029465D01*
X035935Y025950D02*
X036065D01*
X036000Y025885D02*
Y026015D01*
X038335Y027600D02*
X038465D01*
X038400Y027535D02*
Y027665D01*
X037025Y026650D02*
X037275D01*
X037150Y026525D02*
Y026775D01*
X034750Y032650D02*
X036250D01*
X035500Y031900D02*
Y033400D01*
X038450Y028550D02*
X039950D01*
X039200Y027800D02*
Y029300D01*
X034650Y031200D02*
X035200D01*
X034925Y030925D02*
Y031475D01*
X034650Y030420D02*
X035200D01*
X034925Y030145D02*
Y030695D01*
X034650Y029630D02*
X035200D01*
X034925Y029355D02*
Y029905D01*
X034650Y028850D02*
X035200D01*
X034925Y028575D02*
Y029125D01*
X034650Y028050D02*
X035200D01*
X034925Y027775D02*
Y028325D01*
X034650Y027270D02*
X035200D01*
X034925Y026995D02*
Y027545D01*
X034650Y026490D02*
X035200D01*
X034925Y026215D02*
Y026765D01*
X034650Y025700D02*
X035200D01*
X034925Y025425D02*
Y025975D01*
X035625Y025305D02*
X036175D01*
X035900Y025030D02*
Y025580D01*
X036405Y025305D02*
X036955D01*
X036680Y025030D02*
Y025580D01*
X037185Y025305D02*
X037735D01*
X037460Y025030D02*
Y025580D01*
X037985Y025305D02*
X038535D01*
X038260Y025030D02*
Y025580D01*
X038765Y025305D02*
X039315D01*
X039040Y025030D02*
Y025580D01*
X039565Y025305D02*
X040115D01*
X039840Y025030D02*
Y025580D01*
X040550Y025690D02*
X041100D01*
X040825Y025415D02*
Y025965D01*
X040550Y026480D02*
X041100D01*
X040825Y026205D02*
Y026755D01*
X040550Y027260D02*
X041100D01*
X040825Y026985D02*
Y027535D01*
X040550Y028050D02*
X041100D01*
X040825Y027775D02*
Y028325D01*
X040550Y028840D02*
X041100D01*
X040825Y028565D02*
Y029115D01*
X040550Y029620D02*
X041100D01*
X040825Y029345D02*
Y029895D01*
X040550Y030420D02*
X041100D01*
X040825Y030145D02*
Y030695D01*
X040550Y031200D02*
X041100D01*
X040825Y030925D02*
Y031475D01*
M02*
